<svg width="1920" height="1090" viewBox="0 0 1920 1090" fill="none" xmlns="http://www.w3.org/2000/svg">
<rect width="1920" height="1080" fill="#C4C4C4"/>
<rect width="1920" height="1080" fill="#EDEDED"/>
<path fill-rule="evenodd" clip-rule="evenodd" d="M1242.88 1090H682.439C668.263 1071.08 653.542 1052.75 637.309 1036.45C618.452 1017.51 597.713 1000.56 577.137 983.739C534.115 948.571 491.801 913.982 468.882 863.041C432.417 781.994 428.247 691.941 442.87 604.292C443.26 601.954 443.651 599.609 444.042 597.258C460.423 498.838 478.565 389.837 557.813 330.016C637.021 270.224 746.607 282.015 845.938 292.703C848.779 293.009 851.612 293.314 854.436 293.616C946.549 303.475 1036.99 329.75 1108.22 388.926C1165.34 436.385 1193.64 504.539 1222.13 573.17C1227.66 586.501 1233.2 599.849 1238.96 613.068C1247.97 633.724 1258.07 654.201 1268.17 674.665C1302.78 744.806 1337.32 814.8 1327.21 891.355C1317.69 963.448 1287.65 1032.48 1242.88 1090Z" fill="url(#paint0_linear)"/>
<path fill-rule="evenodd" clip-rule="evenodd" d="M1751.27 1090H1342.02C1304.77 1041.97 1306.14 978.228 1307.52 914.086C1308.11 886.39 1308.71 858.619 1306.2 832.007C1305.41 823.658 1304.58 815.357 1303.75 807.094C1297.87 748.292 1292.17 691.415 1303.56 632.831C1304.57 627.62 1305.57 622.385 1306.57 617.137C1320.16 546.023 1334.22 472.435 1385.8 422.265C1445.26 364.444 1529.67 320.539 1611.67 333.184C1665.48 341.482 1701.2 383.7 1737.45 426.535C1754.82 447.071 1772.32 467.75 1791.99 484.899C1809.09 499.808 1828.26 512.727 1847.29 525.555C1869.56 540.558 1891.64 555.437 1910 573.231V893.526C1885.94 938.299 1853.16 977.818 1817.45 1015.81C1805.51 1028.52 1793.81 1041.92 1782.06 1055.37C1771.9 1067.01 1761.7 1078.69 1751.27 1090Z" fill="url(#paint1_linear)"/>
<path fill-rule="evenodd" clip-rule="evenodd" d="M313.259 1090H0V592.708C46.2064 551.281 108.555 521.359 169.234 530.725C211.684 537.277 239.864 570.613 268.455 604.436C282.163 620.653 295.966 636.981 311.481 650.522C324.969 662.295 340.092 672.496 355.109 682.625C387.043 704.165 418.495 725.38 432.72 760.696C454.232 814.107 441.541 874.242 423.63 928.966C405.752 983.59 370.908 1027.84 331.57 1069.74C325.406 1076.31 319.324 1083.11 313.259 1090Z" fill="url(#paint2_linear)"/>
<path fill-rule="evenodd" clip-rule="evenodd" d="M1920 274.385C1902.47 302.426 1880.8 327.994 1857.57 352.744C1848.15 362.78 1838.92 373.359 1829.65 383.982C1791.03 428.237 1751.75 473.259 1695.23 482.954C1621.5 495.601 1535.94 472.66 1486.67 416.367C1453.03 377.928 1454.16 325.345 1455.3 272.418C1455.77 250.548 1456.24 228.62 1454.26 207.607C1453.63 201.014 1452.98 194.459 1452.33 187.934C1447.68 141.503 1443.19 96.5915 1452.17 50.3322C1452.97 46.2177 1453.76 42.0844 1454.55 37.9404C1456.96 25.3149 1459.39 12.5906 1462.17 0L1920 0V274.385Z" fill="url(#paint3_linear)"/>
<path fill-rule="evenodd" clip-rule="evenodd" d="M660.573 0C690.673 26.0951 715.08 56.9863 728.28 94.6002C748.853 153.225 729.136 212.943 709.223 273.252C700.982 298.211 692.707 323.272 687.241 348.398C680.799 378.012 677.876 409.226 674.964 440.308C668.214 512.376 661.531 583.729 611.214 632.746C536.939 705.103 420.204 722.484 317.477 708.614C221.624 695.673 146.657 626.806 76.1863 560.51C48.0608 534.05 22.1886 505.628 0 474.869L0 0H660.573Z" fill="url(#paint4_linear)"/>
<path fill-rule="evenodd" clip-rule="evenodd" d="M1321.11 0C1350.2 38.1478 1366.16 87.6846 1368.96 135.512C1370.99 170.271 1352.33 199.43 1333.34 229.118C1319.48 250.781 1305.43 272.726 1299.12 297.334C1292.4 323.492 1294.76 352.062 1297.08 380.143C1300.52 421.825 1303.88 462.429 1277.34 492.47C1232.54 543.179 1152.04 549.009 1085.02 539.67C1022.78 530.997 970.108 490.508 928.065 443.798C904.561 417.685 895.075 384.74 885.432 351.247C880.309 333.454 875.142 315.507 867.805 298.346C859.554 279.049 846.661 260.654 833.887 242.43C809.26 207.295 785.078 172.796 795.476 133.691C806.418 92.5438 847.279 73.6225 888.351 54.6039C906.263 46.3094 924.215 37.9965 939.742 27.8132C952.498 19.4481 964.767 10.3809 976.966 1.36645C977.582 0.910797 978.199 0.455284 978.815 0H1321.11Z" fill="url(#paint5_linear)"/>
<g filter="url(#filter0_b)">
<rect width="1920" height="1090" fill="url(#paint6_linear)" fill-opacity="0.36"/>
</g>
<defs>
<filter id="filter0_b" x="-14" y="-14" width="1948" height="1118" filterUnits="userSpaceOnUse" color-interpolation-filters="sRGB">
<feFlood flood-opacity="0" result="BackgroundImageFix"/>
<feGaussianBlur in="BackgroundImage" stdDeviation="7"/>
<feComposite in2="SourceAlpha" operator="in" result="effect1_backgroundBlur"/>
<feBlend mode="normal" in="SourceGraphic" in2="effect1_backgroundBlur" result="shape"/>
</filter>
<linearGradient id="paint0_linear" x1="435" y1="771" x2="1329" y2="771" gradientUnits="userSpaceOnUse">
<stop stop-color="#FAD0C4"/>
<stop offset="0.01" stop-color="#FAD0C4"/>
<stop offset="1" stop-color="#FFD1FF"/>
</linearGradient>
<linearGradient id="paint1_linear" x1="1297" y1="758" x2="1960" y2="758" gradientUnits="userSpaceOnUse">
<stop stop-color="#FDCBF1"/>
<stop offset="0.01" stop-color="#FDCBF1"/>
<stop offset="1" stop-color="#E6DEE9"/>
</linearGradient>
<linearGradient id="paint2_linear" x1="-79" y1="866.169" x2="444.02" y2="866.169" gradientUnits="userSpaceOnUse">
<stop stop-color="#FBC2EB"/>
<stop offset="1" stop-color="#A6C1EE"/>
</linearGradient>
<linearGradient id="paint3_linear" x1="1447" y1="149.169" x2="1970.02" y2="149.169" gradientUnits="userSpaceOnUse">
<stop stop-color="#FBC2EB"/>
<stop offset="1" stop-color="#A6C1EE"/>
</linearGradient>
<linearGradient id="paint4_linear" x1="0" y1="356.5" x2="737" y2="356.5" gradientUnits="userSpaceOnUse">
<stop stop-color="#A18CD1"/>
<stop offset="1" stop-color="#FBC2EB"/>
</linearGradient>
<linearGradient id="paint5_linear" x1="793" y1="271.683" x2="1369.11" y2="271.683" gradientUnits="userSpaceOnUse">
<stop stop-color="#E0C3FC"/>
<stop offset="1" stop-color="#8EC5FC"/>
</linearGradient>
<linearGradient id="paint6_linear" x1="422.642" y1="123.396" x2="922.491" y2="1371.1" gradientUnits="userSpaceOnUse">
<stop stop-color="#B3B9FF"/>
<stop offset="1" stop-color="#717CED"/>
</linearGradient>
</defs>
</svg>
